<svg width="800" height="600" viewBox="0 0 800 600" fill="none" xmlns="http://www.w3.org/2000/svg">
  <style>
    .animated-gear {
      transform-origin: 400px 320px;
      animation: rotate 10s linear infinite;
    }
    .animated-small-gear {
      transform-origin: 480px 240px;
      animation: rotate-reverse 7s linear infinite;
    }
    @keyframes rotate {
      from { transform: rotate(0deg); }
      to { transform: rotate(360deg); }
    }
    @keyframes rotate-reverse {
      from { transform: rotate(0deg); }
      to { transform: rotate(-360deg); }
    }
    .flashing {
      animation: flash 1.5s infinite alternate;
    }
    @keyframes flash {
      from { opacity: 0.4; }
      to { opacity: 1; }
    }
  </style>
  
  <!-- Background elements -->
  <circle cx="400" cy="300" r="280" fill="#FCF0F4" />
  <path d="M143.5 155.5C143.5 173.825 125.754 188.5 103.5 188.5C81.2462 188.5 63.5 173.825 63.5 155.5C63.5 137.175 81.2462 122.5 103.5 122.5C125.754 122.5 143.5 137.175 143.5 155.5Z" fill="#F5C1D7" fill-opacity="0.4"/>
  <path d="M743.5 405.5C743.5 423.825 725.754 438.5 703.5 438.5C681.246 438.5 663.5 423.825 663.5 405.5C663.5 387.175 681.246 372.5 703.5 372.5C725.754 372.5 743.5 387.175 743.5 405.5Z" fill="#F5C1D7" fill-opacity="0.4"/>
  <path d="M213.5 495.5C213.5 513.825 195.754 528.5 173.5 528.5C151.246 528.5 133.5 513.825 133.5 495.5C133.5 477.175 151.246 462.5 173.5 462.5C195.754 462.5 213.5 477.175 213.5 495.5Z" fill="#F5C1D7" fill-opacity="0.4"/>
  <path d="M623.5 125.5C623.5 143.825 605.754 158.5 583.5 158.5C561.246 158.5 543.5 143.825 543.5 125.5C543.5 107.175 561.246 92.5 583.5 92.5C605.754 92.5 623.5 107.175 623.5 125.5Z" fill="#F5C1D7" fill-opacity="0.4"/>
  
  <!-- 500 text -->
  <path d="M200 240V280H130V360C130 373.333 134.167 384 142.5 392C150.833 400 162.333 404 177 404C191.667 404 203.167 400 211.5 392C219.833 384 224 373.333 224 360H264C264 387.333 255 409.5 237 426.5C219 443.5 199.667 452 177 452C154.333 452 135 443.5 119 426.5C103 409.5 95 387.333 95 360V240H200Z" fill="#DA3A6F"/>
  <path d="M314.3 240C294.4 240 278.4 248.1 266.6 264.2C254.7 280.3 248.8 301 248.8 326.2C248.8 351.5 254.7 372.1 266.6 388.2C278.4 404.3 294.4 412.4 314.3 412.4C334.2 412.4 350.2 404.3 362 388.2C373.9 372.1 379.8 351.5 379.8 326.2C379.8 301 373.9 280.3 362 264.2C350.2 248.1 334.2 240 314.3 240Z" fill="#DA3A6F"/>
  <path d="M439 240C419.1 240 403.1 248.1 391.3 264.2C379.4 280.3 373.5 301 373.5 326.2C373.5 351.5 379.4 372.1 391.3 388.2C403.1 404.3 419.1 412.4 439 412.4C458.9 412.4 474.9 404.3 486.7 388.2C498.6 372.1 504.5 351.5 504.5 326.2C504.5 301 498.6 280.3 486.7 264.2C474.9 248.1 458.9 240 439 240Z" fill="#DA3A6F"/>
  
  <!-- Server rack illustration -->
  <rect x="550" y="240" width="160" height="200" rx="8" fill="#444" stroke="#222" stroke-width="4"/>
  
  <!-- Server elements -->
  <rect x="560" y="260" width="140" height="25" rx="4" fill="#666"/>
  <rect x="560" y="295" width="140" height="25" rx="4" fill="#666"/>
  <rect x="560" y="330" width="140" height="25" rx="4" fill="#666"/>
  <rect x="560" y="365" width="140" height="25" rx="4" fill="#666"/>
  <rect x="560" y="400" width="140" height="25" rx="4" fill="#666"/>
  
  <!-- Blinking server lights -->
  <circle cx="580" cy="272" r="5" fill="#44FF44" class="flashing"/>
  <circle cx="600" cy="272" r="5" fill="#FF4444" class="flashing"/>
  
  <circle cx="580" cy="307" r="5" fill="#44FF44" class="flashing"/>
  <circle cx="600" cy="307" r="5" fill="#FFFF44" class="flashing"/>
  
  <circle cx="580" cy="342" r="5" fill="#44FF44" class="flashing"/>
  <circle cx="600" cy="342" r="5" fill="#FF4444" class="flashing"/>
  
  <circle cx="580" cy="377" r="5" fill="#444444"/>
  <circle cx="600" cy="377" r="5" fill="#444444"/>
  
  <circle cx="580" cy="412" r="5" fill="#444444"/>
  <circle cx="600" cy="412" r="5" fill="#FF4444" class="flashing"/>
  
  <!-- Gear illustration -->
  <g class="animated-gear">
    <circle cx="400" cy="320" r="60" fill="#888"/>
    <circle cx="400" cy="320" r="20" fill="#555"/>
    
    <!-- Gear teeth -->
    <rect x="395" y="250" width="10" height="30" fill="#888"/>
    <rect x="395" y="360" width="10" height="30" fill="#888"/>
    <rect x="330" y="315" width="30" height="10" fill="#888"/>
    <rect x="440" y="315" width="30" height="10" fill="#888"/>
    
    <!-- Diagonal teeth -->
    <rect x="350" y="270" width="10" height="30" transform="rotate(-45 350 270)" fill="#888"/>
    <rect x="440" y="360" width="10" height="30" transform="rotate(-45 440 360)" fill="#888"/>
    <rect x="350" y="360" width="10" height="30" transform="rotate(45 350 360)" fill="#888"/>
    <rect x="440" y="270" width="10" height="30" transform="rotate(45 440 270)" fill="#888"/>
  </g>
  
  <!-- Small gear -->
  <g class="animated-small-gear">
    <circle cx="480" cy="240" r="30" fill="#888"/>
    <circle cx="480" cy="240" r="10" fill="#555"/>
    
    <!-- Small gear teeth -->
    <rect x="477.5" y="205" width="5" height="15" fill="#888"/>
    <rect x="477.5" y="260" width="5" height="15" fill="#888"/>
    <rect x="445" y="237.5" width="15" height="5" fill="#888"/>
    <rect x="500" y="237.5" width="15" height="5" fill="#888"/>
    
    <!-- Diagonal teeth -->
    <rect x="455" y="215" width="5" height="15" transform="rotate(-45 455 215)" fill="#888"/>
    <rect x="500" y="260" width="5" height="15" transform="rotate(-45 500 260)" fill="#888"/>
    <rect x="455" y="260" width="5" height="15" transform="rotate(45 455 260)" fill="#888"/>
    <rect x="500" y="215" width="5" height="15" transform="rotate(45 500 215)" fill="#888"/>
  </g>
</svg> 